<svg xmlns="http://www.w3.org/2000/svg" viewBox="-0.22 3.28 48.44 41.44"><path fill="none" d="M.002 3.282h48.006v41.445H.002z"/><path fill="#fff" d="M23.998 44.717H0V3.28h47.997v41.437z"/><path fill="none" d="M0 3.28h48v41.44H0z"/><path fill="#809cc9" d="M0 3.28v12.66c6.485-2.714 15.164-5.445 26.058-8.197A332 332 0 0 1 46.296 3.28zm31.012 6.022q-8.574 2.164-13.794 4.4-5.23 2.189-4.885 3.555c.202.803 1.66 1.169 4.384 1.09q2.097-.037 6.818-.457 4.725-.417 12.189-1.212c4.928-.514 9-.863 12.273-1.065V5.992c-6.324.945-11.993 2.047-16.985 3.31m-2.863 13.06q-3.711.278-9.218.857-8.546.916-14.197 1.386c-1.802.15-3.37.261-4.734.34v10.26c7.474-1.102 14.232-2.412 20.26-3.933q8.886-2.244 13.694-4.356c3.203-1.41 4.68-2.595 4.437-3.565-.21-.838-1.691-1.266-4.434-1.285q-2.106.023-5.808.296m19.848 3.32q-9.853 3.883-24.458 7.57C14.465 35.543 6.626 37.19 0 38.202v.091h47.997z"/><path fill="#fff" d="M2.066 27.82q.188 0 .324.142a.44.44 0 0 1 .139.324q0 .2-.139.337c-.139.137-.201.136-.33.136a.466.466 0 0 1-.472-.472.466.466 0 0 1 .479-.466zm.324 3.165a.45.45 0 0 1 .139.334.47.47 0 0 1-.655.428.4.4 0 0 1-.148-.097.4.4 0 0 1-.1-.151.5.5 0 0 1-.039-.186.473.473 0 0 1 .479-.47q.188 0 .324.142m1.301-3.165q.188 0 .324.142a.44.44 0 0 1 .14.324q-.001.2-.14.337c-.139.137-.201.136-.33.136a.463.463 0 0 1-.472-.472q-.001-.195.135-.331a.48.48 0 0 1 .343-.136m.324 3.165a.45.45 0 0 1 .14.334.47.47 0 0 1-.655.428.5.5 0 0 1-.152-.097.5.5 0 0 1-.098-.151.5.5 0 0 1-.038-.186q-.001-.195.136-.33a.48.48 0 0 1 .343-.14q.188 0 .324.142"/><path fill="#809cc9" d="M2.68 42.437q-.151.225-.434.359a1.7 1.7 0 0 1-.68.129q-.468 0-.776-.177a1 1 0 0 1-.352-.343.76.76 0 0 1-.136-.416.28.28 0 0 1 .08-.201.3.3 0 0 1 .207-.082.24.24 0 0 1 .173.066.5.5 0 0 1 .12.192q.06.151.132.255.07.1.199.167c.129.067.198.066.337.066a.76.76 0 0 0 .466-.132.4.4 0 0 0 .18-.334.35.35 0 0 0-.099-.258.6.6 0 0 0-.248-.151 5 5 0 0 0-.41-.11 3 3 0 0 1-.576-.19.9.9 0 0 1-.365-.292.75.75 0 0 1-.136-.46q0-.265.142-.47a.9.9 0 0 1 .416-.311c.18-.076.393-.11.639-.11q.29 0 .504.072c.214.072.261.113.356.192a.8.8 0 0 1 .204.255.6.6 0 0 1 .067.259.32.32 0 0 1-.082.207.26.26 0 0 1-.202.092.23.23 0 0 1-.167-.057.7.7 0 0 1-.123-.18.9.9 0 0 0-.21-.283q-.121-.1-.391-.1a.7.7 0 0 0-.403.11q-.151.108-.151.264-.001.096.05.164a.4.4 0 0 0 .145.12q.09.051.182.078c.092.027.167.047.31.082q.269.066.487.142c.218.076.268.11.369.183s.182.163.24.274a.9.9 0 0 1 .084.409q0 .288-.148.52m2.705-2.413q0-.194.089-.293a.29.29 0 0 1 .23-.097q.15-.001.239.097c.089.098.088.164.088.293v1.569q0 .269.06.447.058.18.21.28c.152.1.243.098.423.098q.377.001.532-.202.157-.2.158-.61v-1.582q0-.198.085-.293.088-.098.233-.097c.145.001.176.031.236.097q.09.094.091.293v1.534q0 .374-.072.623a.97.97 0 0 1-.277.438 1.05 1.05 0 0 1-.403.233 1.8 1.8 0 0 1-.536.073q-.367.001-.633-.079c-.266-.08-.318-.135-.431-.246a1 1 0 0 1-.243-.425 2.1 2.1 0 0 1-.079-.62zm5.755 2.847q-.21 0-.3-.094c-.09-.094-.091-.164-.091-.303v-2.39q0-.213.091-.302.095-.093.3-.092h1.032c.155 0 .284.007.397.026q.166.029.3.107a.8.8 0 0 1 .198.173q.09.1.132.227a.7.7 0 0 1 .047.261c0 .321-.16.551-.478.7q.627.202.626.777 0 .27-.135.482a.8.8 0 0 1-.369.318 1.4 1.4 0 0 1-.336.085 4 4 0 0 1-.441.025zm.255-2.702v.825h.592q.24-.001.371-.044a.37.37 0 0 0 .202-.176.4.4 0 0 0 .053-.205q0-.24-.17-.321c-.17-.081-.29-.079-.526-.079zm0 1.285v.935h.692q.656.001.655-.475 0-.24-.17-.353-.169-.108-.504-.107z"/><path fill="#999" d="m17.142 42.19.721-2.15q.06-.17.085-.233a.3.3 0 0 1 .095-.12.26.26 0 0 1 .176-.053.3.3 0 0 1 .265.15.26.26 0 0 1 .04.14c0 .03-.006.066-.012.1q-.013.058-.034.11l-.038.11-.769 2.08-.082.226a1 1 0 0 1-.097.189q-.054.081-.145.135c-.091.054-.132.05-.217.05a.41.41 0 0 1-.366-.185q-.056-.081-.097-.189c-.041-.108-.054-.148-.082-.227l-.756-2.063q-.023-.057-.041-.11a.7.7 0 0 1-.05-.223.28.28 0 0 1 .09-.202.28.28 0 0 1 .221-.091q.166-.002.237.1.066.1.138.322zm4.516-2.008v.784h1.339q.146 0 .22.066.072.067.073.176c.001.109-.025.13-.073.177q-.072.067-.22.069h-1.339v.91h1.503c.1 0 .18.022.23.07s.075.107.075.185a.23.23 0 0 1-.075.18c-.05.047-.13.072-.23.072H21.41q-.213 0-.303-.094-.094-.095-.094-.303v-2.39a.6.6 0 0 1 .04-.227.27.27 0 0 1 .13-.129.6.6 0 0 1 .227-.038h1.7q.155 0 .23.066c.075.066.076.104.076.177a.23.23 0 0 1-.076.18q-.075.07-.23.069zm4.961 1.326v1.023q-.001.203-.092.3a.3.3 0 0 1-.233.094q-.15.001-.239-.101a.46.46 0 0 1-.082-.293v-2.447q.001-.209.091-.302.094-.093.303-.092h1.049q.216-.002.371.016a.94.94 0 0 1 .542.255q.114.119.173.271a.9.9 0 0 1 .06.33q0 .357-.199.57-.2.214-.61.3.172.093.327.27a2.9 2.9 0 0 1 .472.74.8.8 0 0 1 .067.224.24.24 0 0 1-.038.126.3.3 0 0 1-.11.098.4.4 0 0 1-.161.035q-.107 0-.183-.05c-.076-.05-.091-.08-.126-.13a4 4 0 0 1-.145-.23l-.258-.431a2.5 2.5 0 0 0-.249-.36.6.6 0 0 0-.223-.17.7.7 0 0 0-.284-.046zm0-1.339v.882h.576q.231-.002.39-.041a.47.47 0 0 0 .243-.139.4.4 0 0 0 .082-.267.43.43 0 0 0-.066-.237.43.43 0 0 0-.19-.15q-.108-.048-.443-.048zm6.824 2.268a1 1 0 0 1-.434.359 1.7 1.7 0 0 1-.677.129q-.471 0-.778-.177-.217-.129-.353-.343c-.136-.214-.135-.28-.135-.416a.28.28 0 0 1 .29-.283.25.25 0 0 1 .173.066.6.6 0 0 1 .12.192q.061.151.128.255.075.1.202.167c.127.067.198.066.337.066a.77.77 0 0 0 .466-.132.4.4 0 0 0 .18-.334.36.36 0 0 0-.098-.258.6.6 0 0 0-.252-.151 4 4 0 0 0-.41-.11 3 3 0 0 1-.573-.19.9.9 0 0 1-.368-.292.77.77 0 0 1-.135-.46.8.8 0 0 1 .144-.47.9.9 0 0 1 .413-.311c.183-.076.394-.11.64-.11.195 0 .361.025.506.072q.215.072.353.192.142.123.208.255c.066.132.063.173.063.259a.3.3 0 0 1-.079.207.26.26 0 0 1-.201.092.24.24 0 0 1-.17-.057.7.7 0 0 1-.123-.18.8.8 0 0 0-.208-.283q-.122-.1-.39-.1a.7.7 0 0 0-.404.11q-.155.108-.154.264-.001.096.053.164a.4.4 0 0 0 .142.12q.093.051.186.078.09.03.309.082.269.066.485.142c.216.076.267.11.371.183q.152.108.236.274a.9.9 0 0 1 .085.409.93.93 0 0 1-.148.52m2.727-2.413q0-.194.089-.293c.089-.099.135-.097.23-.097q.147-.001.236.097.09.094.091.293v2.507q0 .197-.09.296c-.09.099-.14.098-.237.098a.3.3 0 0 1-.23-.098q-.089-.099-.088-.296zm5.613-.189c.236.132.413.325.535.57s.183.536.183.87q0 .368-.1.67c-.1.302-.168.378-.3.523a1.3 1.3 0 0 1-.488.34q-.292.118-.665.117c-.373-.001-.472-.041-.667-.12a1.4 1.4 0 0 1-.495-.34 1.4 1.4 0 0 1-.296-.53 2 2 0 0 1-.1-.664q0-.367.103-.674c.103-.307.17-.378.306-.522q.198-.214.485-.328c.287-.114.406-.113.649-.113q.495 0 .85.201m-.047.825a.86.86 0 0 0-.321-.387.9.9 0 0 0-.482-.132.9.9 0 0 0-.356.072.8.8 0 0 0-.28.214 1 1 0 0 0-.186.356q-.07.216-.07.488c0 .18.023.347.07.492a1 1 0 0 0 .192.365.81.81 0 0 0 .64.29.9.9 0 0 0 .453-.123q.208-.126.33-.384c.122-.258.123-.388.123-.64q0-.352-.113-.61zm5.404 1.238v-1.896q-.001-.183.079-.277c.08-.094.123-.091.211-.091q.14-.002.22.091c.08.093.08.154.08.277v2.504q.001.42-.347.419a.4.4 0 0 1-.155-.025.4.4 0 0 1-.132-.08 1 1 0 0 1-.11-.125 3 3 0 0 1-.104-.151l-1.216-1.855v1.867c0 .12-.028.214-.085.274a.28.28 0 0 1-.217.095.27.27 0 0 1-.217-.095q-.085-.094-.085-.274V40.1q0-.156.034-.246a.38.38 0 0 1 .347-.22q.085 0 .148.028a.25.25 0 0 1 .107.076 1 1 0 0 1 .097.122q.049.075.101.161z"/><path fill="none" stroke="#809cc9" stroke-width=".444" d="M0 44.493h47.997"/><path fill="none" d="M0 3.28h48v41.437H0z"/></svg>